<mxfile host="app.diagrams.net" modified="2020-08-11T08:01:37.603Z" agent="5.0 (Windows)" etag="pHLLcrTMktFQLh2uQDAo" version="13.6.2" type="github">
  <diagram id="prtHgNgQTEPvFCAcTncT" name="Page-1">
    <mxGraphModel dx="1360" dy="831" grid="1" gridSize="10" guides="1" tooltips="1" connect="1" arrows="1" fold="1" page="1" pageScale="1" pageWidth="827" pageHeight="1169" math="0" shadow="0">
      <root>
        <mxCell id="0" />
        <mxCell id="1" parent="0" />
        <mxCell id="jRb7BXFaz-ixFjLJfYml-6" value="Start" style="strokeWidth=2;html=1;shape=mxgraph.flowchart.start_1;whiteSpace=wrap;fillColor=#dae8fc;strokeColor=#6c8ebf;" vertex="1" parent="1">
          <mxGeometry x="230" y="170" width="100" height="60" as="geometry" />
        </mxCell>
        <mxCell id="jRb7BXFaz-ixFjLJfYml-16" value="End" style="strokeWidth=2;html=1;shape=mxgraph.flowchart.start_1;whiteSpace=wrap;fillColor=#dae8fc;strokeColor=#6c8ebf;" vertex="1" parent="1">
          <mxGeometry x="920" y="590" width="100" height="60" as="geometry" />
        </mxCell>
        <mxCell id="jRb7BXFaz-ixFjLJfYml-27" style="edgeStyle=orthogonalEdgeStyle;rounded=0;orthogonalLoop=1;jettySize=auto;html=1;strokeWidth=2;" edge="1" parent="1" source="jRb7BXFaz-ixFjLJfYml-15" target="jRb7BXFaz-ixFjLJfYml-16">
          <mxGeometry relative="1" as="geometry" />
        </mxCell>
        <mxCell id="jRb7BXFaz-ixFjLJfYml-2" value="Password Reset Process" style="swimlane;html=1;childLayout=stackLayout;resizeParent=1;resizeParentMax=0;horizontal=1;startSize=20;horizontalStack=0;" vertex="1" parent="1">
          <mxGeometry x="200" y="250" width="850" height="320" as="geometry" />
        </mxCell>
        <mxCell id="jRb7BXFaz-ixFjLJfYml-3" value="User" style="swimlane;html=1;startSize=20;horizontal=0;fillColor=#d5e8d4;strokeColor=#82b366;" vertex="1" parent="jRb7BXFaz-ixFjLJfYml-2">
          <mxGeometry y="20" width="850" height="150" as="geometry" />
        </mxCell>
        <mxCell id="jRb7BXFaz-ixFjLJfYml-18" style="edgeStyle=orthogonalEdgeStyle;rounded=0;orthogonalLoop=1;jettySize=auto;html=1;strokeWidth=2;" edge="1" parent="jRb7BXFaz-ixFjLJfYml-3" source="jRb7BXFaz-ixFjLJfYml-7" target="jRb7BXFaz-ixFjLJfYml-9">
          <mxGeometry relative="1" as="geometry" />
        </mxCell>
        <mxCell id="jRb7BXFaz-ixFjLJfYml-7" value="Initiate&lt;br&gt;Forgotten&lt;br&gt;Password" style="rounded=1;whiteSpace=wrap;html=1;absoluteArcSize=1;arcSize=14;strokeWidth=2;fillColor=#d5e8d4;strokeColor=#82b366;" vertex="1" parent="jRb7BXFaz-ixFjLJfYml-3">
          <mxGeometry x="30" y="25" width="100" height="100" as="geometry" />
        </mxCell>
        <mxCell id="jRb7BXFaz-ixFjLJfYml-9" value="Verify Existing Account" style="rounded=1;whiteSpace=wrap;html=1;absoluteArcSize=1;arcSize=14;strokeWidth=2;fillColor=#d5e8d4;strokeColor=#82b366;" vertex="1" parent="jRb7BXFaz-ixFjLJfYml-3">
          <mxGeometry x="160" y="25" width="100" height="100" as="geometry" />
        </mxCell>
        <mxCell id="jRb7BXFaz-ixFjLJfYml-23" style="edgeStyle=orthogonalEdgeStyle;rounded=0;orthogonalLoop=1;jettySize=auto;html=1;strokeWidth=2;" edge="1" parent="jRb7BXFaz-ixFjLJfYml-3" source="jRb7BXFaz-ixFjLJfYml-11" target="jRb7BXFaz-ixFjLJfYml-9">
          <mxGeometry relative="1" as="geometry" />
        </mxCell>
        <mxCell id="jRb7BXFaz-ixFjLJfYml-11" value="Account Not Found Error" style="shape=parallelogram;html=1;strokeWidth=2;perimeter=parallelogramPerimeter;whiteSpace=wrap;rounded=1;arcSize=12;size=0.23;fillColor=#d5e8d4;strokeColor=#82b366;" vertex="1" parent="jRb7BXFaz-ixFjLJfYml-3">
          <mxGeometry x="300" y="45" width="100" height="60" as="geometry" />
        </mxCell>
        <mxCell id="jRb7BXFaz-ixFjLJfYml-13" value="Reset Password" style="rounded=1;whiteSpace=wrap;html=1;absoluteArcSize=1;arcSize=14;strokeWidth=2;fillColor=#d5e8d4;strokeColor=#82b366;" vertex="1" parent="jRb7BXFaz-ixFjLJfYml-3">
          <mxGeometry x="440" y="20" width="100" height="100" as="geometry" />
        </mxCell>
        <mxCell id="jRb7BXFaz-ixFjLJfYml-4" value="System" style="swimlane;html=1;startSize=20;horizontal=0;fillColor=#ffe6cc;strokeColor=#d79b00;" vertex="1" parent="jRb7BXFaz-ixFjLJfYml-2">
          <mxGeometry y="170" width="850" height="150" as="geometry" />
        </mxCell>
        <mxCell id="jRb7BXFaz-ixFjLJfYml-26" style="edgeStyle=orthogonalEdgeStyle;rounded=0;orthogonalLoop=1;jettySize=auto;html=1;entryX=0;entryY=0.5;entryDx=0;entryDy=0;strokeWidth=2;exitX=0.93;exitY=0.5;exitDx=0;exitDy=0;exitPerimeter=0;" edge="1" parent="jRb7BXFaz-ixFjLJfYml-4" source="jRb7BXFaz-ixFjLJfYml-10" target="jRb7BXFaz-ixFjLJfYml-15">
          <mxGeometry relative="1" as="geometry" />
        </mxCell>
        <mxCell id="jRb7BXFaz-ixFjLJfYml-10" value="Save New Password" style="strokeWidth=2;html=1;shape=mxgraph.flowchart.stored_data;whiteSpace=wrap;fillColor=#ffe6cc;strokeColor=#d79b00;" vertex="1" parent="jRb7BXFaz-ixFjLJfYml-4">
          <mxGeometry x="580" y="40" width="100" height="60" as="geometry" />
        </mxCell>
        <mxCell id="jRb7BXFaz-ixFjLJfYml-21" value="Yes" style="edgeStyle=orthogonalEdgeStyle;rounded=0;orthogonalLoop=1;jettySize=auto;html=1;entryX=0;entryY=0.5;entryDx=0;entryDy=0;strokeWidth=2;" edge="1" parent="jRb7BXFaz-ixFjLJfYml-4" source="jRb7BXFaz-ixFjLJfYml-12" target="jRb7BXFaz-ixFjLJfYml-14">
          <mxGeometry relative="1" as="geometry" />
        </mxCell>
        <mxCell id="jRb7BXFaz-ixFjLJfYml-12" value="Account Exists?" style="strokeWidth=2;html=1;shape=mxgraph.flowchart.decision;whiteSpace=wrap;fillColor=#ffe6cc;strokeColor=#d79b00;" vertex="1" parent="jRb7BXFaz-ixFjLJfYml-4">
          <mxGeometry x="300" y="20" width="100" height="100" as="geometry" />
        </mxCell>
        <mxCell id="jRb7BXFaz-ixFjLJfYml-14" value="Generate&lt;br&gt;&quot;Password&lt;br&gt;Reset&quot;&lt;br&gt;Email" style="shape=parallelogram;html=1;strokeWidth=2;perimeter=parallelogramPerimeter;whiteSpace=wrap;rounded=1;arcSize=12;size=0.23;fillColor=#ffe6cc;strokeColor=#d79b00;" vertex="1" parent="jRb7BXFaz-ixFjLJfYml-4">
          <mxGeometry x="440" y="40" width="100" height="60" as="geometry" />
        </mxCell>
        <mxCell id="jRb7BXFaz-ixFjLJfYml-15" value="Redirect to Login" style="rounded=1;whiteSpace=wrap;html=1;absoluteArcSize=1;arcSize=14;strokeWidth=2;fillColor=#ffe6cc;strokeColor=#d79b00;" vertex="1" parent="jRb7BXFaz-ixFjLJfYml-4">
          <mxGeometry x="720" y="20" width="100" height="100" as="geometry" />
        </mxCell>
        <mxCell id="jRb7BXFaz-ixFjLJfYml-20" style="edgeStyle=orthogonalEdgeStyle;rounded=0;orthogonalLoop=1;jettySize=auto;html=1;entryX=0;entryY=0.5;entryDx=0;entryDy=0;entryPerimeter=0;strokeWidth=2;" edge="1" parent="jRb7BXFaz-ixFjLJfYml-2" source="jRb7BXFaz-ixFjLJfYml-9" target="jRb7BXFaz-ixFjLJfYml-12">
          <mxGeometry relative="1" as="geometry">
            <Array as="points">
              <mxPoint x="210" y="240" />
            </Array>
          </mxGeometry>
        </mxCell>
        <mxCell id="jRb7BXFaz-ixFjLJfYml-22" value="No" style="edgeStyle=orthogonalEdgeStyle;rounded=0;orthogonalLoop=1;jettySize=auto;html=1;entryX=0.5;entryY=1;entryDx=0;entryDy=0;strokeWidth=2;" edge="1" parent="jRb7BXFaz-ixFjLJfYml-2" source="jRb7BXFaz-ixFjLJfYml-12" target="jRb7BXFaz-ixFjLJfYml-11">
          <mxGeometry relative="1" as="geometry" />
        </mxCell>
        <mxCell id="jRb7BXFaz-ixFjLJfYml-24" style="edgeStyle=orthogonalEdgeStyle;rounded=0;orthogonalLoop=1;jettySize=auto;html=1;strokeWidth=2;" edge="1" parent="jRb7BXFaz-ixFjLJfYml-2" source="jRb7BXFaz-ixFjLJfYml-14" target="jRb7BXFaz-ixFjLJfYml-13">
          <mxGeometry relative="1" as="geometry" />
        </mxCell>
        <mxCell id="jRb7BXFaz-ixFjLJfYml-25" style="edgeStyle=orthogonalEdgeStyle;rounded=0;orthogonalLoop=1;jettySize=auto;html=1;entryX=0.5;entryY=0;entryDx=0;entryDy=0;entryPerimeter=0;strokeWidth=2;" edge="1" parent="jRb7BXFaz-ixFjLJfYml-2" source="jRb7BXFaz-ixFjLJfYml-13" target="jRb7BXFaz-ixFjLJfYml-10">
          <mxGeometry relative="1" as="geometry" />
        </mxCell>
        <mxCell id="jRb7BXFaz-ixFjLJfYml-17" style="edgeStyle=orthogonalEdgeStyle;rounded=0;orthogonalLoop=1;jettySize=auto;html=1;strokeWidth=2;" edge="1" parent="1" source="jRb7BXFaz-ixFjLJfYml-6" target="jRb7BXFaz-ixFjLJfYml-7">
          <mxGeometry relative="1" as="geometry" />
        </mxCell>
      </root>
    </mxGraphModel>
  </diagram>
</mxfile>
